G04 PROTEUS GERBER X2 FILE*
%TF.GenerationSoftware,Labcenter,Proteus,8.17-SP2-Build37159*%
%TF.CreationDate,2024-06-30T12:35:40+00:00*%
%TF.FileFunction,Copper,L2,Bot*%
%TF.FilePolarity,Positive*%
%TF.Part,Single*%
%TF.SameCoordinates,{19548e37-bc0f-4651-8564-f809119557b0}*%
%FSLAX45Y45*%
%MOMM*%
G01*
%TA.AperFunction,Conductor*%
%ADD10C,0.762000*%
%TA.AperFunction,ComponentPad*%
%ADD11R,1.270000X1.270000*%
%ADD12C,1.270000*%
%TA.AperFunction,ComponentPad*%
%ADD13C,1.778000*%
%ADD14R,2.032000X2.032000*%
%TA.AperFunction,WasherPad*%
%ADD15C,1.397000*%
%TA.AperFunction,OtherPad,Unknown*%
%ADD16C,2.032000*%
%TA.AperFunction,Profile*%
%ADD17C,0.101600*%
%TD.AperFunction*%
D10*
X-14550000Y+12193180D02*
X-14193180Y+12193180D01*
X-14150000Y+12150000D01*
X-13896000Y+12150000D02*
X-13550000Y+12150000D01*
X-14150000Y+12150000D02*
X-14150000Y+12024440D01*
X-14021560Y+11896000D01*
X-13550000Y+11896000D01*
X-13279635Y+11896000D01*
X-13047149Y+11663514D01*
X-12809514Y+11663514D01*
X-12788000Y+11642000D01*
X-13550000Y+12150000D02*
X-13550000Y+12236453D01*
X-13374469Y+12411984D01*
X-12561984Y+12411984D01*
X-12300000Y+12150000D01*
X-14550000Y+11177180D02*
X-14087670Y+11639510D01*
X-13552490Y+11639510D01*
X-13550000Y+11642000D01*
X-12300000Y+11896000D02*
X-12046000Y+11642000D01*
X-11538000Y+11642000D01*
X-12300000Y+11642000D02*
X-11835180Y+11177180D01*
X-10650000Y+11177180D01*
X-11538000Y+11642000D02*
X-11240754Y+11642000D01*
X-11031973Y+11850781D01*
X-10996000Y+11886754D01*
X-10996000Y+12150000D01*
X-13604000Y+10081750D02*
X-13885750Y+9800000D01*
X-14075371Y+9800000D01*
X-14300000Y+10024629D01*
X-14300000Y+10068250D01*
X-10600000Y+10850000D02*
X-10600000Y+11127180D01*
X-10650000Y+11177180D01*
X-10650000Y+12193180D02*
X-10693180Y+12150000D01*
X-10996000Y+12150000D01*
X-11346000Y+10068250D02*
X-11088775Y+10325475D01*
X-10872677Y+10325475D01*
X-10700000Y+10152798D01*
X-10700000Y+10081750D01*
X-10600000Y+10850000D02*
X-10700000Y+10750000D01*
X-10700000Y+10152798D01*
X-10954000Y+10081750D02*
X-11247079Y+9788671D01*
X-11376749Y+9788671D01*
X-11600000Y+10011922D01*
X-11600000Y+10068250D01*
X-13550000Y+11388000D02*
X-13354872Y+11192872D01*
X-12532186Y+11192872D01*
X-12337058Y+11388000D01*
X-12300000Y+11388000D01*
X-12300000Y+12150000D02*
X-12300000Y+12249903D01*
X-12139404Y+12410499D01*
X-11510499Y+12410499D01*
X-11250000Y+12150000D01*
X-14550000Y+11177180D02*
X-14550000Y+10884000D01*
X-14516000Y+10850000D01*
X-13500000Y+10850000D02*
X-11958564Y+10850000D01*
X-11825177Y+10983387D01*
X-11733528Y+11075036D01*
X-11645151Y+11075036D01*
X-11375036Y+11075036D01*
X-11250000Y+10950000D01*
X-11250000Y+10625703D01*
X-11600000Y+10275703D01*
X-11600000Y+10068250D01*
X-14300000Y+10068250D02*
X-14300000Y+10400000D01*
X-14500000Y+10600000D01*
X-14500000Y+10834000D01*
X-14516000Y+10850000D01*
X-12671453Y+12033453D02*
X-12966547Y+12033453D01*
X-13018906Y+11981094D01*
X-12788000Y+12150000D02*
X-12671453Y+12033453D01*
X-12300000Y+11388000D02*
X-12550000Y+11638000D01*
X-12550000Y+11912000D01*
X-12671453Y+12033453D01*
X-13375598Y+10324402D02*
X-12989433Y+10710567D01*
X-11760440Y+10710567D01*
X-11755433Y+10710567D01*
X-11616000Y+10850000D01*
X-14046000Y+10068250D02*
X-13736405Y+10377845D01*
X-13429041Y+10377845D01*
X-13375598Y+10324402D01*
X-13350000Y+10298804D01*
X-13350000Y+10081750D01*
D11*
X-13550000Y+12150000D03*
D12*
X-13550000Y+11896000D03*
X-13550000Y+11642000D03*
X-13550000Y+11388000D03*
X-12788000Y+11388000D03*
X-12788000Y+11642000D03*
X-12788000Y+11896000D03*
X-12788000Y+12150000D03*
D11*
X-12300000Y+12150000D03*
D12*
X-12300000Y+11896000D03*
X-12300000Y+11642000D03*
X-12300000Y+11388000D03*
X-11538000Y+11388000D03*
X-11538000Y+11642000D03*
X-11538000Y+11896000D03*
X-11538000Y+12150000D03*
D13*
X-14550000Y+11177180D03*
X-14550000Y+12193180D03*
X-14150000Y+12150000D03*
X-13896000Y+12150000D03*
X-10650000Y+12193180D03*
X-10650000Y+11177180D03*
X-11250000Y+12150000D03*
X-10996000Y+12150000D03*
X-10600000Y+10850000D03*
X-11616000Y+10850000D03*
D14*
X-14300000Y+10068250D03*
X-14046000Y+10068250D03*
X-13350000Y+10081750D03*
X-13604000Y+10081750D03*
X-11600000Y+10068250D03*
X-11346000Y+10068250D03*
X-10700000Y+10081750D03*
X-10954000Y+10081750D03*
D13*
X-13500000Y+10850000D03*
X-14516000Y+10850000D03*
D15*
X-12400000Y+10100000D03*
X-12600000Y+10100000D03*
D16*
X-14700000Y+9750000D03*
X-14700000Y+12400000D03*
X-10350000Y+12400000D03*
X-10350000Y+9700000D03*
D17*
X-14850000Y+9550000D02*
X-10200000Y+9550000D01*
X-10200000Y+12550000D01*
X-14850000Y+12550000D01*
X-14850000Y+9550000D01*
M02*
