G04 PROTEUS GERBER X2 FILE*
%TF.GenerationSoftware,Labcenter,Proteus,8.17-SP2-Build37159*%
%TF.CreationDate,2024-06-30T12:35:40+00:00*%
%TF.FileFunction,Soldermask,Bot*%
%TF.FilePolarity,Negative*%
%TF.Part,Single*%
%TF.SameCoordinates,{19548e37-bc0f-4651-8564-f809119557b0}*%
%FSLAX45Y45*%
%MOMM*%
G01*
%AMPPAD011*
4,1,36,
0.762000,0.635000,
0.762000,-0.635000,
0.759420,-0.660590,
0.752020,-0.684430,
0.740310,-0.706000,
0.724800,-0.724800,
0.706000,-0.740310,
0.684430,-0.752020,
0.660590,-0.759420,
0.635000,-0.762000,
-0.635000,-0.762000,
-0.660590,-0.759420,
-0.684430,-0.752020,
-0.706000,-0.740310,
-0.724800,-0.724800,
-0.740310,-0.706000,
-0.752020,-0.684430,
-0.759420,-0.660590,
-0.762000,-0.635000,
-0.762000,0.635000,
-0.759420,0.660590,
-0.752020,0.684430,
-0.740310,0.706000,
-0.724800,0.724800,
-0.706000,0.740310,
-0.684430,0.752020,
-0.660590,0.759420,
-0.635000,0.762000,
0.635000,0.762000,
0.660590,0.759420,
0.684430,0.752020,
0.706000,0.740310,
0.724800,0.724800,
0.740310,0.706000,
0.752020,0.684430,
0.759420,0.660590,
0.762000,0.635000,
0*%
%TA.AperFunction,Material*%
%ADD71PPAD011*%
%ADD20C,1.524000*%
%TA.AperFunction,Material*%
%ADD21C,2.032000*%
%AMPPAD014*
4,1,36,
-1.016000,1.143000,
1.016000,1.143000,
1.041590,1.140420,
1.065430,1.133020,
1.087000,1.121310,
1.105800,1.105800,
1.121310,1.087000,
1.133020,1.065430,
1.140420,1.041590,
1.143000,1.016000,
1.143000,-1.016000,
1.140420,-1.041590,
1.133020,-1.065430,
1.121310,-1.087000,
1.105800,-1.105800,
1.087000,-1.121310,
1.065430,-1.133020,
1.041590,-1.140420,
1.016000,-1.143000,
-1.016000,-1.143000,
-1.041590,-1.140420,
-1.065430,-1.133020,
-1.087000,-1.121310,
-1.105800,-1.105800,
-1.121310,-1.087000,
-1.133020,-1.065430,
-1.140420,-1.041590,
-1.143000,-1.016000,
-1.143000,1.016000,
-1.140420,1.041590,
-1.133020,1.065430,
-1.121310,1.087000,
-1.105800,1.105800,
-1.087000,1.121310,
-1.065430,1.133020,
-1.041590,1.140420,
-1.016000,1.143000,
0*%
%ADD22PPAD014*%
%ADD23C,1.651000*%
%TA.AperFunction,Material*%
%ADD24C,2.286000*%
%TA.AperFunction,Profile*%
%ADD17C,0.101600*%
%TD.AperFunction*%
D71*
X-13550000Y+12150000D03*
D20*
X-13550000Y+11896000D03*
X-13550000Y+11642000D03*
X-13550000Y+11388000D03*
X-12788000Y+11388000D03*
X-12788000Y+11642000D03*
X-12788000Y+11896000D03*
X-12788000Y+12150000D03*
D71*
X-12300000Y+12150000D03*
D20*
X-12300000Y+11896000D03*
X-12300000Y+11642000D03*
X-12300000Y+11388000D03*
X-11538000Y+11388000D03*
X-11538000Y+11642000D03*
X-11538000Y+11896000D03*
X-11538000Y+12150000D03*
D21*
X-14550000Y+11177180D03*
X-14550000Y+12193180D03*
X-14150000Y+12150000D03*
X-13896000Y+12150000D03*
X-10650000Y+12193180D03*
X-10650000Y+11177180D03*
X-11250000Y+12150000D03*
X-10996000Y+12150000D03*
X-10600000Y+10850000D03*
X-11616000Y+10850000D03*
D22*
X-14300000Y+10068250D03*
X-14046000Y+10068250D03*
X-13350000Y+10081750D03*
X-13604000Y+10081750D03*
X-11600000Y+10068250D03*
X-11346000Y+10068250D03*
X-10700000Y+10081750D03*
X-10954000Y+10081750D03*
D21*
X-13500000Y+10850000D03*
X-14516000Y+10850000D03*
D23*
X-12400000Y+10100000D03*
X-12600000Y+10100000D03*
D24*
X-14700000Y+9750000D03*
X-14700000Y+12400000D03*
X-10350000Y+12400000D03*
X-10350000Y+9700000D03*
D17*
X-14850000Y+9550000D02*
X-10200000Y+9550000D01*
X-10200000Y+12550000D01*
X-14850000Y+12550000D01*
X-14850000Y+9550000D01*
M02*
